<svg aria-hidden="true" style="width:0;height:0;position:absolute;overflow:hidden" xmlns="http://www.w3.org/2000/svg"><defs><symbol id="icon-Bitmap" viewBox="0 0 34 32"><path fill="#f9f8f7" style="fill:var(--color1,#f9f8f7)" d="M-.533-.533H33.6v32H24c6.617-1.855 8.751-6.122 6.4-12.8 2.895-5.096 2.539-10.252-1.067-15.467-1.748-1.621-3.526-1.798-5.333-.533C21.791 1.271 19.125.56 16 .534l-8 .533c-1.805 1.494-2.516 3.45-2.133 5.867-.843-1.182-1.376-2.605-1.6-4.267L2.134 4.8C.447 11.437.092 18.193 1.067 25.067c1.45 2.691 3.406 4.824 5.867 6.4H-.533v-32z"/><path fill="#fc4941" style="fill:var(--color2,#fc4941)" d="m24 2.667-8.533 9.6c-1.5.505-2.211 1.571-2.133 3.2l-4.267 3.2c-.676-4.131-1.743-8.042-3.2-11.733C5.484 4.517 6.195 2.561 8 1.067l8-.533c3.125.026 5.791.738 8 2.133z"/><path fill="#52be60" style="fill:var(--color3,#52be60)" d="M30.4 18.667a7205.408 7205.408 0 0 0-14.933-6.4L24 2.667c1.807-1.265 3.585-1.087 5.333.533 3.606 5.215 3.962 10.37 1.067 15.467z"/><path fill="#fece47" style="fill:var(--color4,#fece47)" d="M5.867 6.933c1.457 3.691 2.524 7.602 3.2 11.733l2.133 12.8H6.933c-2.461-1.576-4.416-3.709-5.867-6.4C.09 18.192.446 11.437 2.133 4.799l2.133-2.133c.224 1.662.757 3.084 1.6 4.267z"/><path fill="#bbafd8" style="fill:var(--color5,#bbafd8)" d="M15.467 12.267c.078 1.629-.633 2.695-2.133 3.2-.078-1.629.633-2.695 2.133-3.2z"/><path fill="#2682fa" style="fill:var(--color6,#2682fa)" d="M15.467 12.267c4.934 2.108 9.912 4.241 14.933 6.4 2.35 6.678.217 10.945-6.4 12.8H11.2l-2.133-12.8 4.267-3.2c1.5-.505 2.211-1.571 2.133-3.2z"/></symbol><symbol id="icon-logo-text" viewBox="0 0 148 29"><path fill-rule="evenodd" clip-rule="evenodd" d="M60.563 5.875c-.914-.557-2.008-.835-3.28-.835-1.372 0-2.6.331-3.683.994-1.084.662-1.939 1.612-2.565 2.85-.626 1.24-.94 2.703-.94 4.393 0 1.67.314 3.13.94 4.377.626 1.248 1.481 2.204 2.565 2.866 1.083.662 2.31.994 3.683.994 1.272 0 2.366-.279 3.28-.836a4.899 4.899 0 0 0 1.998-2.275v2.909h5.1V0h-5.1v8.15a4.899 4.899 0 0 0-1.998-2.275ZM5.57 21.312V14.17h3.16c1.651 0 3.053-.284 4.206-.85 1.153-.566 2.023-1.344 2.61-2.333.586-.989.88-2.117.88-3.384 0-2.035-.657-3.653-1.969-4.853-1.312-1.2-3.22-1.8-5.726-1.8H.47v20.362h5.1Zm5.666-13.709c0 1.747-1.024 2.621-3.072 2.621H5.57v-5.3h2.594c2.048 0 3.072.894 3.072 2.68Zm12.794.663a7.126 7.126 0 0 1 2.46-2.333 6.451 6.451 0 0 1 3.266-.864v5.27h-1.461c-1.352 0-2.4.279-3.147.835-.745.557-1.118 1.498-1.118 2.823v7.315h-5.1V5.242h5.1v3.024Zm20.086-2.232c-1.302-.663-2.779-.994-4.429-.994-1.65 0-3.131.331-4.443.994a7.411 7.411 0 0 0-3.087 2.865c-.746 1.248-1.118 2.707-1.118 4.378 0 1.67.372 3.13 1.118 4.377a7.411 7.411 0 0 0 3.087 2.866c1.312.662 2.793.994 4.443.994 1.65 0 3.127-.332 4.429-.994a7.432 7.432 0 0 0 3.072-2.866c.745-1.248 1.118-2.707 1.118-4.377s-.373-3.13-1.118-4.378a7.432 7.432 0 0 0-3.072-2.865Zm-4.429 3.268c-.974 0-1.794.341-2.46 1.023-.666.681-1 1.665-1 2.952 0 1.286.334 2.265 1 2.937.666.672 1.486 1.008 2.46 1.008s1.79-.336 2.446-1.008c.656-.672.984-1.65.984-2.937s-.328-2.27-.984-2.952c-.656-.682-1.472-1.023-2.446-1.023Zm19.236.058c-1.093 0-1.973.346-2.64 1.037-.665.691-.998 1.651-.998 2.88 0 1.229.333 2.189.999 2.88.666.691 1.546 1.037 2.64 1.037 1.073 0 1.953-.356 2.638-1.066.686-.71 1.03-1.66 1.03-2.851 0-1.21-.344-2.165-1.03-2.866-.685-.7-1.565-1.051-2.639-1.051Zm28.81 11.952V5.242h-5.13v8.524c0 1.172-.299 2.074-.895 2.708-.597.633-1.412.95-2.446.95-.994 0-1.784-.302-2.37-.907-.587-.605-.88-1.455-.88-2.549V5.242h-5.07v9.33c0 2.151.561 3.84 1.685 5.07 1.123 1.228 2.64 1.843 4.548 1.843 1.252 0 2.35-.279 3.295-.835.945-.557 1.655-1.306 2.133-2.247v2.909h5.13ZM98.766 5.04c2.147 0 3.946.571 5.398 1.714 1.451 1.142 2.366 2.712 2.743 4.708h-5.398c-.159-.69-.487-1.228-.984-1.612-.497-.384-1.123-.576-1.879-.576-.894 0-1.63.34-2.207 1.022-.576.682-.864 1.675-.864 2.98 0 1.306.288 2.3.864 2.982.577.681 1.313 1.022 2.207 1.022.756 0 1.382-.192 1.879-.576.497-.384.825-.922.984-1.613h5.398c-.377 1.997-1.292 3.567-2.743 4.709-1.452 1.142-3.251 1.714-5.398 1.714-1.63 0-3.077-.332-4.34-.994a7.231 7.231 0 0 1-2.967-2.866c-.716-1.248-1.074-2.707-1.074-4.377 0-1.69.353-3.154 1.06-4.392a7.138 7.138 0 0 1 2.966-2.851c1.273-.663 2.724-.994 4.355-.994Zm20.22 16.272v-4.234h-1.611c-.636 0-1.088-.124-1.357-.374-.268-.25-.402-.691-.402-1.325V9.39h3.34V5.242h-3.34V1.296h-5.1v3.946h-2.237v4.147h2.237v5.904c0 2.15.542 3.691 1.625 4.622 1.084.931 2.6 1.397 4.548 1.397h2.297ZM126.949 0v21.312h-5.099V0h5.099Zm11.363 15.091-3.996-9.85h-5.697l6.979 15.466-3.907 8.266h5.607l10.378-23.731h-5.636l-3.728 9.85Z" fill="#173A56"/></symbol></defs></svg>